<?xml version="1.0" encoding="UTF-8"?>
<svg width="846px" height="53px" viewBox="0 0 846 53" version="1.1" xmlns="http://www.w3.org/2000/svg" xmlns:xlink="http://www.w3.org/1999/xlink">
    <!-- Generator: Sketch 61.2 (89653) - https://sketch.com -->
    <title>TRIATHLONCONTESTANT</title>
    <desc>Created with Sketch.</desc>
    <g id="Page-1" stroke="none" stroke-width="1" fill="none" fill-rule="evenodd">
        <g id="Artboard" transform="translate(-135.000000, -22.000000)" fill="#000000" fill-rule="nonzero">
            <path d="M158.75333,73 L158.75333,29.53 L174.64333,29.53 L174.64333,23.44 L135.93333,23.44 L135.93333,29.53 L151.82333,29.53 L151.82333,73 L158.75333,73 Z M187.119997,73 L187.119997,50.95 L194.539997,50.95 L207.139997,73 L215.539997,73 L201.679997,50.25 C205.226664,49.6433333 208.119997,48.22 210.359997,45.98 C212.599997,43.74 213.719997,40.8 213.719997,37.16 C213.719997,34.64 213.253331,32.505 212.319997,30.755 C211.386664,29.005 210.114997,27.5933333 208.504997,26.52 C206.894997,25.4466667 205.016664,24.665 202.869997,24.175 C200.723331,23.685 198.459997,23.44 196.079997,23.44 L196.079997,23.44 L180.189997,23.44 L180.189997,73 L187.119997,73 Z M195.099997,45.14 L187.119997,45.14 L187.119997,29.32 L195.589997,29.32 C197.083331,29.32 198.506664,29.4483333 199.859997,29.705 C201.213331,29.9616667 202.391664,30.3933333 203.394997,31 C204.398331,31.6066667 205.203331,32.4116667 205.809997,33.415 C206.416664,34.4183333 206.719997,35.6666667 206.719997,37.16 C206.719997,38.6533333 206.416664,39.9016667 205.809997,40.905 C205.203331,41.9083333 204.374997,42.725 203.324997,43.355 C202.274997,43.985 201.049997,44.44 199.649997,44.72 C198.249997,45 196.733331,45.14 195.099997,45.14 L195.099997,45.14 Z M229.066664,73 L229.066664,23.44 L222.136664,23.44 L222.136664,73 L229.066664,73 Z M242.103331,73 L247.073331,60.82 L270.593331,60.82 L275.633331,73 L283.473331,73 L262.193331,23.44 L255.893331,23.44 L234.403331,73 L242.103331,73 Z M268.073331,54.73 L249.523331,54.73 L258.833331,31.49 L268.073331,54.73 Z M301.969998,73 L301.969998,29.53 L317.859998,29.53 L317.859998,23.44 L279.149998,23.44 L279.149998,29.53 L295.039998,29.53 L295.039998,73 L301.969998,73 Z M330.336665,73 L330.336665,50.32 L355.396665,50.32 L355.396665,73 L362.396665,73 L362.396665,23.44 L355.396665,23.44 L355.396665,44.16 L330.336665,44.16 L330.336665,23.44 L323.406665,23.44 L323.406665,73 L330.336665,73 Z M402.453332,73 L402.453332,66.84 L380.333332,66.84 L380.333332,23.44 L373.403332,23.44 L373.403332,73 L402.453332,73 Z M429.699999,74.26 C433.479999,74.26 436.979999,73.6183333 440.199999,72.335 C443.419999,71.0516667 446.196666,69.255 448.529999,66.945 C450.863332,64.635 452.694999,61.8816667 454.024999,58.685 C455.354999,55.4883333 456.019999,51.9766667 456.019999,48.15 C456.019999,44.2766667 455.354999,40.7416667 454.024999,37.545 C452.694999,34.3483333 450.863332,31.6183333 448.529999,29.355 C446.196666,27.0916667 443.419999,25.33 440.199999,24.07 C436.979999,22.81 433.479999,22.18 429.699999,22.18 C425.919999,22.18 422.431666,22.81 419.234999,24.07 C416.038332,25.33 413.273332,27.0916667 410.939999,29.355 C408.606666,31.6183333 406.786666,34.3483333 405.479999,37.545 C404.173332,40.7416667 403.519999,44.2766667 403.519999,48.15 C403.519999,51.9766667 404.173332,55.4883333 405.479999,58.685 C406.786666,61.8816667 408.606666,64.635 410.939999,66.945 C413.273332,69.255 416.038332,71.0516667 419.234999,72.335 C422.431666,73.6183333 425.919999,74.26 429.699999,74.26 Z M429.699999,68.03 C426.853332,68.03 424.286666,67.5166667 421.999999,66.49 C419.713332,65.4633333 417.753332,64.0516667 416.119999,62.255 C414.486666,60.4583333 413.226666,58.3466667 412.339999,55.92 C411.453332,53.4933333 411.009999,50.9033333 411.009999,48.15 C411.009999,45.4433333 411.453332,42.8883333 412.339999,40.485 C413.226666,38.0816667 414.474999,35.97 416.084999,34.15 C417.694999,32.33 419.654999,30.895 421.964999,29.845 C424.274999,28.795 426.853332,28.27 429.699999,28.27 C432.593332,28.27 435.194999,28.795 437.504999,29.845 C439.814999,30.895 441.786666,32.33 443.419999,34.15 C445.053332,35.97 446.313332,38.0816667 447.199999,40.485 C448.086666,42.8883333 448.529999,45.4433333 448.529999,48.15 C448.529999,50.9033333 448.086666,53.4933333 447.199999,55.92 C446.313332,58.3466667 445.053332,60.4583333 443.419999,62.255 C441.786666,64.0516667 439.803332,65.4633333 437.469999,66.49 C435.136666,67.5166667 432.546666,68.03 429.699999,68.03 Z M471.366666,73 L471.366666,32.54 L471.506666,32.54 L497.686666,73 L506.436666,73 L506.436666,23.44 L499.506666,23.44 L499.506666,63.06 L499.366666,63.06 L473.466666,23.44 L464.436666,23.44 L464.436666,73 L471.366666,73 Z M557.5,74.26 C561.886667,74.26 565.643333,73.4316667 568.77,71.775 C571.896667,70.1183333 574.44,67.96 576.4,65.3 L576.4,65.3 L570.87,61.52 C569.376667,63.6666667 567.486667,65.3 565.2,66.42 C562.913333,67.54 560.37,68.1 557.57,68.1 C554.723333,68.1 552.145,67.5866667 549.835,66.56 C547.525,65.5333333 545.565,64.1216667 543.955,62.325 C542.345,60.5283333 541.108333,58.4166667 540.245,55.99 C539.381667,53.5633333 538.95,50.95 538.95,48.15 C538.95,45.4433333 539.393333,42.8883333 540.28,40.485 C541.166667,38.0816667 542.426667,35.97 544.06,34.15 C545.693333,32.33 547.665,30.895 549.975,29.845 C552.285,28.795 554.886667,28.27 557.78,28.27 C560.346667,28.27 562.738333,28.8183333 564.955,29.915 C567.171667,31.0116667 568.886667,32.4 570.1,34.08 L570.1,34.08 L575.56,29.88 C574.626667,28.62 573.506667,27.5116667 572.2,26.555 C570.893333,25.5983333 569.446667,24.7933333 567.86,24.14 C566.273333,23.4866667 564.616667,22.9966667 562.89,22.67 C561.163333,22.3433333 559.46,22.18 557.78,22.18 C554,22.18 550.5,22.81 547.28,24.07 C544.06,25.33 541.271667,27.0916667 538.915,29.355 C536.558333,31.6183333 534.715,34.3483333 533.385,37.545 C532.055,40.7416667 531.39,44.2766667 531.39,48.15 C531.39,51.9766667 532.043333,55.4883333 533.35,58.685 C534.656667,61.8816667 536.465,64.635 538.775,66.945 C541.085,69.255 543.838333,71.0516667 547.035,72.335 C550.231667,73.6183333 553.72,74.26 557.5,74.26 Z M605.256667,74.26 C609.036667,74.26 612.536667,73.6183333 615.756667,72.335 C618.976667,71.0516667 621.753334,69.255 624.086667,66.945 C626.42,64.635 628.251667,61.8816667 629.581667,58.685 C630.911667,55.4883333 631.576667,51.9766667 631.576667,48.15 C631.576667,44.2766667 630.911667,40.7416667 629.581667,37.545 C628.251667,34.3483333 626.42,31.6183333 624.086667,29.355 C621.753334,27.0916667 618.976667,25.33 615.756667,24.07 C612.536667,22.81 609.036667,22.18 605.256667,22.18 C601.476667,22.18 597.988334,22.81 594.791667,24.07 C591.595,25.33 588.83,27.0916667 586.496667,29.355 C584.163334,31.6183333 582.343334,34.3483333 581.036667,37.545 C579.73,40.7416667 579.076667,44.2766667 579.076667,48.15 C579.076667,51.9766667 579.73,55.4883333 581.036667,58.685 C582.343334,61.8816667 584.163334,64.635 586.496667,66.945 C588.83,69.255 591.595,71.0516667 594.791667,72.335 C597.988334,73.6183333 601.476667,74.26 605.256667,74.26 Z M605.256667,68.03 C602.41,68.03 599.843334,67.5166667 597.556667,66.49 C595.27,65.4633333 593.31,64.0516667 591.676667,62.255 C590.043334,60.4583333 588.783334,58.3466667 587.896667,55.92 C587.01,53.4933333 586.566667,50.9033333 586.566667,48.15 C586.566667,45.4433333 587.01,42.8883333 587.896667,40.485 C588.783334,38.0816667 590.031667,35.97 591.641667,34.15 C593.251667,32.33 595.211667,30.895 597.521667,29.845 C599.831667,28.795 602.41,28.27 605.256667,28.27 C608.15,28.27 610.751667,28.795 613.061667,29.845 C615.371667,30.895 617.343334,32.33 618.976667,34.15 C620.61,35.97 621.87,38.0816667 622.756667,40.485 C623.643334,42.8883333 624.086667,45.4433333 624.086667,48.15 C624.086667,50.9033333 623.643334,53.4933333 622.756667,55.92 C621.87,58.3466667 620.61,60.4583333 618.976667,62.255 C617.343334,64.0516667 615.36,65.4633333 613.026667,66.49 C610.693334,67.5166667 608.103334,68.03 605.256667,68.03 Z M646.923334,73 L646.923334,32.54 L647.063334,32.54 L673.243334,73 L681.993334,73 L681.993334,23.44 L675.063334,23.44 L675.063334,63.06 L674.923334,63.06 L649.023334,23.44 L639.993334,23.44 L639.993334,73 L646.923334,73 Z M710.360001,73 L710.360001,29.53 L726.250001,29.53 L726.250001,23.44 L687.540001,23.44 L687.540001,29.53 L703.430001,29.53 L703.430001,73 L710.360001,73 Z M764.626668,73 L764.626668,66.84 L738.726668,66.84 L738.726668,50.32 L762.106668,50.32 L762.106668,44.37 L738.726668,44.37 L738.726668,29.53 L763.576668,29.53 L763.576668,23.44 L731.796668,23.44 L731.796668,73 L764.626668,73 Z M785.713335,74.26 C787.906668,74.26 790.041668,73.9566667 792.118335,73.35 C794.195001,72.7433333 796.026668,71.8216667 797.613335,70.585 C799.200001,69.3483333 800.471668,67.785 801.428335,65.895 C802.385001,64.005 802.863335,61.7766667 802.863335,59.21 C802.863335,56.7366667 802.420001,54.695 801.533335,53.085 C800.646668,51.475 799.503335,50.1333333 798.103335,49.06 C796.703335,47.9866667 795.140001,47.1233333 793.413335,46.47 C791.686668,45.8166667 789.983335,45.2333333 788.303335,44.72 C786.903335,44.2533333 785.585001,43.7983333 784.348335,43.355 C783.111668,42.9116667 782.038335,42.375 781.128335,41.745 C780.218335,41.115 779.495001,40.345 778.958335,39.435 C778.421668,38.525 778.153335,37.3933333 778.153335,36.04 C778.153335,34.64 778.445001,33.4383333 779.028335,32.435 C779.611668,31.4316667 780.370001,30.5916667 781.303335,29.915 C782.236668,29.2383333 783.275001,28.7483333 784.418335,28.445 C785.561668,28.1416667 786.693335,27.99 787.813335,27.99 C789.913335,27.99 791.803335,28.4216667 793.483335,29.285 C795.163335,30.1483333 796.493335,31.2566667 797.473335,32.61 L797.473335,32.61 L802.373335,27.85 C800.833335,26.1233333 798.803335,24.7466667 796.283335,23.72 C793.763335,22.6933333 791.056668,22.18 788.163335,22.18 C786.110001,22.18 784.068335,22.4483333 782.038335,22.985 C780.008335,23.5216667 778.188335,24.3733333 776.578335,25.54 C774.968335,26.7066667 773.661668,28.1766667 772.658335,29.95 C771.655001,31.7233333 771.153335,33.8466667 771.153335,36.32 C771.153335,38.6066667 771.526668,40.52 772.273335,42.06 C773.020001,43.6 774.000001,44.895 775.213335,45.945 C776.426668,46.995 777.803335,47.8583333 779.343335,48.535 C780.883335,49.2116667 782.446668,49.7833333 784.033335,50.25 C785.620001,50.7633333 787.125001,51.265 788.548335,51.755 C789.971668,52.245 791.220001,52.84 792.293335,53.54 C793.366668,54.24 794.218335,55.0916667 794.848335,56.095 C795.478335,57.0983333 795.793335,58.3466667 795.793335,59.84 C795.793335,61.3333333 795.490001,62.605 794.883335,63.655 C794.276668,64.705 793.495001,65.58 792.538335,66.28 C791.581668,66.98 790.520001,67.4933333 789.353335,67.82 C788.186668,68.1466667 787.020001,68.31 785.853335,68.31 C783.566668,68.31 781.443335,67.7733333 779.483335,66.7 C777.523335,65.6266667 775.960001,64.2266667 774.793335,62.5 L774.793335,62.5 L769.403335,67.05 C771.316668,69.43 773.731668,71.2266667 776.648335,72.44 C779.565001,73.6533333 782.586668,74.26 785.713335,74.26 Z M827.870002,73 L827.870002,29.53 L843.760002,29.53 L843.760002,23.44 L805.050002,23.44 L805.050002,29.53 L820.940002,29.53 L820.940002,73 L827.870002,73 Z M847.136669,73 L852.106669,60.82 L875.626669,60.82 L880.666669,73 L888.506669,73 L867.226669,23.44 L860.926669,23.44 L839.436669,73 L847.136669,73 Z M873.106669,54.73 L854.556669,54.73 L863.866669,31.49 L873.106669,54.73 Z M900.773336,73 L900.773336,32.54 L900.913336,32.54 L927.093336,73 L935.843336,73 L935.843336,23.44 L928.913336,23.44 L928.913336,63.06 L928.773336,63.06 L902.873336,23.44 L893.843336,23.44 L893.843336,73 L900.773336,73 Z M964.210003,73 L964.210003,29.53 L980.100003,29.53 L980.100003,23.44 L941.390003,23.44 L941.390003,29.53 L957.280003,29.53 L957.280003,73 L964.210003,73 Z" id="TRIATHLONCONTESTANT"></path>
        </g>
    </g>
</svg>